<svg width="800" height="400" xmlns="http://www.w3.org/2000/svg">
  <!-- Background -->
  <rect width="800" height="400" fill="white"/>

  <!-- Title -->
  <text x="400" y="30" text-anchor="middle" font-size="18" font-weight="bold" fill="#1f2937">
    Dynamic Route Matching (1 param) - Performance Trend
  </text>

  <!-- Grid lines -->
  <line x1="60" y1="60" x2="740" y2="60" stroke="#e5e7eb" stroke-width="1"/>
  <text x="50" y="65" text-anchor="end" font-size="12" fill="#6b7280">
    2.8M
  </text>
  <line x1="60" y1="116" x2="740" y2="116" stroke="#e5e7eb" stroke-width="1"/>
  <text x="50" y="121" text-anchor="end" font-size="12" fill="#6b7280">
    2.2M
  </text>
  <line x1="60" y1="172" x2="740" y2="172" stroke="#e5e7eb" stroke-width="1"/>
  <text x="50" y="177" text-anchor="end" font-size="12" fill="#6b7280">
    1.7M
  </text>
  <line x1="60" y1="228" x2="740" y2="228" stroke="#e5e7eb" stroke-width="1"/>
  <text x="50" y="233" text-anchor="end" font-size="12" fill="#6b7280">
    1.1M
  </text>
  <line x1="60" y1="284" x2="740" y2="284" stroke="#e5e7eb" stroke-width="1"/>
  <text x="50" y="289" text-anchor="end" font-size="12" fill="#6b7280">
    561K
  </text>
  <line x1="60" y1="340" x2="740" y2="340" stroke="#e5e7eb" stroke-width="1"/>
  <text x="50" y="345" text-anchor="end" font-size="12" fill="#6b7280">
    0
  </text>
  <text x="60" y="365" text-anchor="middle" font-size="10" fill="#6b7280" transform="rotate(-45, 60, 365)">
    11-07
  </text>
  <text x="230" y="365" text-anchor="middle" font-size="10" fill="#6b7280" transform="rotate(-45, 230, 365)">
    11-08
  </text>
  <text x="400" y="365" text-anchor="middle" font-size="10" fill="#6b7280" transform="rotate(-45, 400, 365)">
    11-09
  </text>
  <text x="570" y="365" text-anchor="middle" font-size="10" fill="#6b7280" transform="rotate(-45, 570, 365)">
    11-10
  </text>
  <text x="740" y="365" text-anchor="middle" font-size="10" fill="#6b7280" transform="rotate(-45, 740, 365)">
    11-11
  </text>
  <polyline points="60,336.08857464195023 230,336.10827456036714 400,336.03146886923355 570,336.0805449906734 740,335.8091224868332" fill="none" stroke="#3b82f6" stroke-width="2"/>
  <circle cx="60" cy="336.08857464195023" r="4" fill="#3b82f6"/>
  <circle cx="230" cy="336.10827456036714" r="4" fill="#3b82f6"/>
  <circle cx="400" cy="336.03146886923355" r="4" fill="#3b82f6"/>
  <circle cx="570" cy="336.0805449906734" r="4" fill="#3b82f6"/>
  <circle cx="740" cy="335.8091224868332" r="4" fill="#3b82f6"/>
  <polyline points="60,309.24631649521666 230,308.9137120054571 400,309.67148242618225 570,309.05169759406743 740,307.9448891854155" fill="none" stroke="#ef4444" stroke-width="2"/>
  <circle cx="60" cy="309.24631649521666" r="4" fill="#ef4444"/>
  <circle cx="230" cy="308.9137120054571" r="4" fill="#ef4444"/>
  <circle cx="400" cy="309.67148242618225" r="4" fill="#ef4444"/>
  <circle cx="570" cy="309.05169759406743" r="4" fill="#ef4444"/>
  <circle cx="740" cy="307.9448891854155" r="4" fill="#ef4444"/>
  <polyline points="60,100.43847907743509 230,108.7709941365531 400,118.4241634300823 570,109.44564978783117 740,85.45454545454547" fill="none" stroke="#10b981" stroke-width="2"/>
  <circle cx="60" cy="100.43847907743509" r="4" fill="#10b981"/>
  <circle cx="230" cy="108.7709941365531" r="4" fill="#10b981"/>
  <circle cx="400" cy="118.4241634300823" r="4" fill="#10b981"/>
  <circle cx="570" cy="109.44564978783117" r="4" fill="#10b981"/>
  <circle cx="740" cy="85.45454545454547" r="4" fill="#10b981"/>
  <rect x="650" y="42" width="12" height="12" fill="#3b82f6"/>
  <text x="668" y="53" font-size="12" fill="#374151">React Router</text>
  <rect x="650" y="62" width="12" height="12" fill="#ef4444"/>
  <text x="668" y="73" font-size="12" fill="#374151">Wouter</text>
  <rect x="650" y="82" width="12" height="12" fill="#10b981"/>
  <text x="668" y="93" font-size="12" fill="#374151">Zen Router</text>
</svg>