<svg width="800" height="400" xmlns="http://www.w3.org/2000/svg">
  <!-- Background -->
  <rect width="800" height="400" fill="white"/>

  <!-- Title -->
  <text x="400" y="30" text-anchor="middle" font-size="18" font-weight="bold" fill="#1f2937">
    Dynamic Route Matching (1 param) - Performance Trend
  </text>

  <!-- Grid lines -->
  <line x1="60" y1="60" x2="740" y2="60" stroke="#e5e7eb" stroke-width="1"/>
  <text x="50" y="65" text-anchor="end" font-size="12" fill="#6b7280">
    2.7M
  </text>
  <line x1="60" y1="116" x2="740" y2="116" stroke="#e5e7eb" stroke-width="1"/>
  <text x="50" y="121" text-anchor="end" font-size="12" fill="#6b7280">
    2.1M
  </text>
  <line x1="60" y1="172" x2="740" y2="172" stroke="#e5e7eb" stroke-width="1"/>
  <text x="50" y="177" text-anchor="end" font-size="12" fill="#6b7280">
    1.6M
  </text>
  <line x1="60" y1="228" x2="740" y2="228" stroke="#e5e7eb" stroke-width="1"/>
  <text x="50" y="233" text-anchor="end" font-size="12" fill="#6b7280">
    1.1M
  </text>
  <line x1="60" y1="284" x2="740" y2="284" stroke="#e5e7eb" stroke-width="1"/>
  <text x="50" y="289" text-anchor="end" font-size="12" fill="#6b7280">
    534K
  </text>
  <line x1="60" y1="340" x2="740" y2="340" stroke="#e5e7eb" stroke-width="1"/>
  <text x="50" y="345" text-anchor="end" font-size="12" fill="#6b7280">
    0
  </text>
  <text x="60" y="365" text-anchor="middle" font-size="10" fill="#6b7280" transform="rotate(-45, 60, 365)">
    11-07
  </text>
  <text x="230" y="365" text-anchor="middle" font-size="10" fill="#6b7280" transform="rotate(-45, 230, 365)">
    11-08
  </text>
  <text x="400" y="365" text-anchor="middle" font-size="10" fill="#6b7280" transform="rotate(-45, 400, 365)">
    11-09
  </text>
  <text x="570" y="365" text-anchor="middle" font-size="10" fill="#6b7280" transform="rotate(-45, 570, 365)">
    11-10
  </text>
  <text x="740" y="365" text-anchor="middle" font-size="10" fill="#6b7280" transform="rotate(-45, 740, 365)">
    11-11
  </text>
  <polyline points="60,335.889264469667 230,335.9099682150201 400,335.82924882130226 570,335.8808256603383 740,335.81091472145005" fill="none" stroke="#3b82f6" stroke-width="2"/>
  <circle cx="60" cy="335.889264469667" r="4" fill="#3b82f6"/>
  <circle cx="230" cy="335.9099682150201" r="4" fill="#3b82f6"/>
  <circle cx="400" cy="335.82924882130226" r="4" fill="#3b82f6"/>
  <circle cx="570" cy="335.8808256603383" r="4" fill="#3b82f6"/>
  <circle cx="740" cy="335.81091472145005" r="4" fill="#3b82f6"/>
  <polyline points="60,307.6792350871391 230,307.32968243856584 400,308.12606572781857 570,307.47469920607415 740,308.06898975514406" fill="none" stroke="#ef4444" stroke-width="2"/>
  <circle cx="60" cy="307.6792350871391" r="4" fill="#ef4444"/>
  <circle cx="230" cy="307.32968243856584" r="4" fill="#ef4444"/>
  <circle cx="400" cy="308.12606572781857" r="4" fill="#ef4444"/>
  <circle cx="570" cy="307.47469920607415" r="4" fill="#ef4444"/>
  <circle cx="740" cy="308.06898975514406" r="4" fill="#ef4444"/>
  <polyline points="60,88.23140783440334 230,96.98851363985065 400,107.13356879565589 570,97.69754697235209 740,85.45454545454547" fill="none" stroke="#10b981" stroke-width="2"/>
  <circle cx="60" cy="88.23140783440334" r="4" fill="#10b981"/>
  <circle cx="230" cy="96.98851363985065" r="4" fill="#10b981"/>
  <circle cx="400" cy="107.13356879565589" r="4" fill="#10b981"/>
  <circle cx="570" cy="97.69754697235209" r="4" fill="#10b981"/>
  <circle cx="740" cy="85.45454545454547" r="4" fill="#10b981"/>
  <rect x="650" y="42" width="12" height="12" fill="#3b82f6"/>
  <text x="668" y="53" font-size="12" fill="#374151">React Router</text>
  <rect x="650" y="62" width="12" height="12" fill="#ef4444"/>
  <text x="668" y="73" font-size="12" fill="#374151">Wouter</text>
  <rect x="650" y="82" width="12" height="12" fill="#10b981"/>
  <text x="668" y="93" font-size="12" fill="#374151">Zen Router</text>
</svg>