<svg width="800" height="400" xmlns="http://www.w3.org/2000/svg">
  <!-- Background -->
  <rect width="800" height="400" fill="white"/>

  <!-- Title -->
  <text x="400" y="30" text-anchor="middle" font-size="18" font-weight="bold" fill="#1f2937">
    Dynamic Route Matching (1 param) - Performance Trend
  </text>

  <!-- Grid lines -->
  <line x1="60" y1="60" x2="740" y2="60" stroke="#e5e7eb" stroke-width="1"/>
  <text x="50" y="65" text-anchor="end" font-size="12" fill="#6b7280">
    2.6M
  </text>
  <line x1="60" y1="116" x2="740" y2="116" stroke="#e5e7eb" stroke-width="1"/>
  <text x="50" y="121" text-anchor="end" font-size="12" fill="#6b7280">
    2.1M
  </text>
  <line x1="60" y1="172" x2="740" y2="172" stroke="#e5e7eb" stroke-width="1"/>
  <text x="50" y="177" text-anchor="end" font-size="12" fill="#6b7280">
    1.6M
  </text>
  <line x1="60" y1="228" x2="740" y2="228" stroke="#e5e7eb" stroke-width="1"/>
  <text x="50" y="233" text-anchor="end" font-size="12" fill="#6b7280">
    1.1M
  </text>
  <line x1="60" y1="284" x2="740" y2="284" stroke="#e5e7eb" stroke-width="1"/>
  <text x="50" y="289" text-anchor="end" font-size="12" fill="#6b7280">
    529K
  </text>
  <line x1="60" y1="340" x2="740" y2="340" stroke="#e5e7eb" stroke-width="1"/>
  <text x="50" y="345" text-anchor="end" font-size="12" fill="#6b7280">
    0
  </text>
  <text x="60" y="365" text-anchor="middle" font-size="10" fill="#6b7280" transform="rotate(-45, 60, 365)">
    11-07
  </text>
  <text x="400" y="365" text-anchor="middle" font-size="10" fill="#6b7280" transform="rotate(-45, 400, 365)">
    11-08
  </text>
  <text x="740" y="365" text-anchor="middle" font-size="10" fill="#6b7280" transform="rotate(-45, 740, 365)">
    11-09
  </text>
  <polyline points="60,335.84677230686617 400,335.86769006426454 740,335.7018958213424" fill="none" stroke="#3b82f6" stroke-width="2"/>
  <circle cx="60" cy="335.84677230686617" r="4" fill="#3b82f6"/>
  <circle cx="400" cy="335.86769006426454" r="4" fill="#3b82f6"/>
  <circle cx="740" cy="335.7018958213424" r="4" fill="#3b82f6"/>
  <polyline points="60,307.3451393530813 400,306.9919734221791 740,307.12563380068406" fill="none" stroke="#ef4444" stroke-width="2"/>
  <circle cx="60" cy="307.3451393530813" r="4" fill="#ef4444"/>
  <circle cx="400" cy="306.9919734221791" r="4" fill="#ef4444"/>
  <circle cx="740" cy="307.12563380068406" r="4" fill="#ef4444"/>
  <polyline points="60,85.62890715599912 400,94.47653407690211 740,85.4545454545455" fill="none" stroke="#10b981" stroke-width="2"/>
  <circle cx="60" cy="85.62890715599912" r="4" fill="#10b981"/>
  <circle cx="400" cy="94.47653407690211" r="4" fill="#10b981"/>
  <circle cx="740" cy="85.4545454545455" r="4" fill="#10b981"/>
  <rect x="650" y="42" width="12" height="12" fill="#3b82f6"/>
  <text x="668" y="53" font-size="12" fill="#374151">React Router</text>
  <rect x="650" y="62" width="12" height="12" fill="#ef4444"/>
  <text x="668" y="73" font-size="12" fill="#374151">Wouter</text>
  <rect x="650" y="82" width="12" height="12" fill="#10b981"/>
  <text x="668" y="93" font-size="12" fill="#374151">Zen Router</text>
</svg>