<svg width="800" height="400" xmlns="http://www.w3.org/2000/svg">
  <!-- Background -->
  <rect width="800" height="400" fill="white"/>

  <!-- Title -->
  <text x="400" y="30" text-anchor="middle" font-size="18" font-weight="bold" fill="#1f2937">
    Nested Dynamic Routes (2 params) - Performance Trend
  </text>

  <!-- Grid lines -->
  <line x1="60" y1="60" x2="740" y2="60" stroke="#e5e7eb" stroke-width="1"/>
  <text x="50" y="65" text-anchor="end" font-size="12" fill="#6b7280">
    1.8M
  </text>
  <line x1="60" y1="116" x2="740" y2="116" stroke="#e5e7eb" stroke-width="1"/>
  <text x="50" y="121" text-anchor="end" font-size="12" fill="#6b7280">
    1.4M
  </text>
  <line x1="60" y1="172" x2="740" y2="172" stroke="#e5e7eb" stroke-width="1"/>
  <text x="50" y="177" text-anchor="end" font-size="12" fill="#6b7280">
    1.1M
  </text>
  <line x1="60" y1="228" x2="740" y2="228" stroke="#e5e7eb" stroke-width="1"/>
  <text x="50" y="233" text-anchor="end" font-size="12" fill="#6b7280">
    711K
  </text>
  <line x1="60" y1="284" x2="740" y2="284" stroke="#e5e7eb" stroke-width="1"/>
  <text x="50" y="289" text-anchor="end" font-size="12" fill="#6b7280">
    356K
  </text>
  <line x1="60" y1="340" x2="740" y2="340" stroke="#e5e7eb" stroke-width="1"/>
  <text x="50" y="345" text-anchor="end" font-size="12" fill="#6b7280">
    0
  </text>
  <text x="60" y="365" text-anchor="middle" font-size="10" fill="#6b7280" transform="rotate(-45, 60, 365)">
    11-07
  </text>
  <text x="230" y="365" text-anchor="middle" font-size="10" fill="#6b7280" transform="rotate(-45, 230, 365)">
    11-08
  </text>
  <text x="400" y="365" text-anchor="middle" font-size="10" fill="#6b7280" transform="rotate(-45, 400, 365)">
    11-09
  </text>
  <text x="570" y="365" text-anchor="middle" font-size="10" fill="#6b7280" transform="rotate(-45, 570, 365)">
    11-10
  </text>
  <text x="740" y="365" text-anchor="middle" font-size="10" fill="#6b7280" transform="rotate(-45, 740, 365)">
    11-11
  </text>
  <polyline points="60,331.52663955590316 230,331.4170253223771 400,331.14564662160376 570,331.212936676052 740,330.82611005853335" fill="none" stroke="#3b82f6" stroke-width="2"/>
  <circle cx="60" cy="331.52663955590316" r="4" fill="#3b82f6"/>
  <circle cx="230" cy="331.4170253223771" r="4" fill="#3b82f6"/>
  <circle cx="400" cy="331.14564662160376" r="4" fill="#3b82f6"/>
  <circle cx="570" cy="331.212936676052" r="4" fill="#3b82f6"/>
  <circle cx="740" cy="330.82611005853335" r="4" fill="#3b82f6"/>
  <polyline points="60,310.0670507275547 230,309.7021712001862 400,310.0311743310615 570,310.6216428686131 740,308.8136828390116" fill="none" stroke="#ef4444" stroke-width="2"/>
  <circle cx="60" cy="310.0670507275547" r="4" fill="#ef4444"/>
  <circle cx="230" cy="309.7021712001862" r="4" fill="#ef4444"/>
  <circle cx="400" cy="310.0311743310615" r="4" fill="#ef4444"/>
  <circle cx="570" cy="310.6216428686131" r="4" fill="#ef4444"/>
  <circle cx="740" cy="308.8136828390116" r="4" fill="#ef4444"/>
  <polyline points="60,87.22692519224404 230,98.77807049071052 400,96.98792493883224 570,93.62935621015237 740,85.45454545454547" fill="none" stroke="#10b981" stroke-width="2"/>
  <circle cx="60" cy="87.22692519224404" r="4" fill="#10b981"/>
  <circle cx="230" cy="98.77807049071052" r="4" fill="#10b981"/>
  <circle cx="400" cy="96.98792493883224" r="4" fill="#10b981"/>
  <circle cx="570" cy="93.62935621015237" r="4" fill="#10b981"/>
  <circle cx="740" cy="85.45454545454547" r="4" fill="#10b981"/>
  <rect x="650" y="42" width="12" height="12" fill="#3b82f6"/>
  <text x="668" y="53" font-size="12" fill="#374151">React Router</text>
  <rect x="650" y="62" width="12" height="12" fill="#ef4444"/>
  <text x="668" y="73" font-size="12" fill="#374151">Wouter</text>
  <rect x="650" y="82" width="12" height="12" fill="#10b981"/>
  <text x="668" y="93" font-size="12" fill="#374151">Zen Router</text>
</svg>