<svg width="800" height="400" xmlns="http://www.w3.org/2000/svg">
  <!-- Background -->
  <rect width="800" height="400" fill="white"/>

  <!-- Title -->
  <text x="400" y="30" text-anchor="middle" font-size="18" font-weight="bold" fill="#1f2937">
    Nested Dynamic Routes (2 params) - Performance Trend
  </text>

  <!-- Grid lines -->
  <line x1="60" y1="60" x2="740" y2="60" stroke="#e5e7eb" stroke-width="1"/>
  <text x="50" y="65" text-anchor="end" font-size="12" fill="#6b7280">
    1.8M
  </text>
  <line x1="60" y1="116" x2="740" y2="116" stroke="#e5e7eb" stroke-width="1"/>
  <text x="50" y="121" text-anchor="end" font-size="12" fill="#6b7280">
    1.5M
  </text>
  <line x1="60" y1="172" x2="740" y2="172" stroke="#e5e7eb" stroke-width="1"/>
  <text x="50" y="177" text-anchor="end" font-size="12" fill="#6b7280">
    1.1M
  </text>
  <line x1="60" y1="228" x2="740" y2="228" stroke="#e5e7eb" stroke-width="1"/>
  <text x="50" y="233" text-anchor="end" font-size="12" fill="#6b7280">
    732K
  </text>
  <line x1="60" y1="284" x2="740" y2="284" stroke="#e5e7eb" stroke-width="1"/>
  <text x="50" y="289" text-anchor="end" font-size="12" fill="#6b7280">
    366K
  </text>
  <line x1="60" y1="340" x2="740" y2="340" stroke="#e5e7eb" stroke-width="1"/>
  <text x="50" y="345" text-anchor="end" font-size="12" fill="#6b7280">
    0
  </text>
  <text x="60" y="365" text-anchor="middle" font-size="10" fill="#6b7280" transform="rotate(-45, 60, 365)">
    11-07
  </text>
  <text x="230" y="365" text-anchor="middle" font-size="10" fill="#6b7280" transform="rotate(-45, 230, 365)">
    11-08
  </text>
  <text x="400" y="365" text-anchor="middle" font-size="10" fill="#6b7280" transform="rotate(-45, 400, 365)">
    11-09
  </text>
  <text x="570" y="365" text-anchor="middle" font-size="10" fill="#6b7280" transform="rotate(-45, 570, 365)">
    11-10
  </text>
  <text x="740" y="365" text-anchor="middle" font-size="10" fill="#6b7280" transform="rotate(-45, 740, 365)">
    11-11
  </text>
  <polyline points="60,331.767487390559 230,331.66098884542674 400,331.397323846069 570,331.46270123977126 740,331.61263638875016" fill="none" stroke="#3b82f6" stroke-width="2"/>
  <circle cx="60" cy="331.767487390559" r="4" fill="#3b82f6"/>
  <circle cx="230" cy="331.66098884542674" r="4" fill="#3b82f6"/>
  <circle cx="400" cy="331.397323846069" r="4" fill="#3b82f6"/>
  <circle cx="570" cy="331.46270123977126" r="4" fill="#3b82f6"/>
  <circle cx="740" cy="331.61263638875016" r="4" fill="#3b82f6"/>
  <polyline points="60,310.9178685423632 230,310.5633603953528 400,310.88301190095626 570,311.45669688850546 740,311.156471695692" fill="none" stroke="#ef4444" stroke-width="2"/>
  <circle cx="60" cy="310.9178685423632" r="4" fill="#ef4444"/>
  <circle cx="230" cy="310.5633603953528" r="4" fill="#ef4444"/>
  <circle cx="400" cy="310.88301190095626" r="4" fill="#ef4444"/>
  <circle cx="570" cy="311.45669688850546" r="4" fill="#ef4444"/>
  <circle cx="740" cy="311.156471695692" r="4" fill="#ef4444"/>
  <polyline points="60,94.41177801756635 230,105.63459214786343 400,103.89532991231911 570,100.63222555237252 740,85.4545454545455" fill="none" stroke="#10b981" stroke-width="2"/>
  <circle cx="60" cy="94.41177801756635" r="4" fill="#10b981"/>
  <circle cx="230" cy="105.63459214786343" r="4" fill="#10b981"/>
  <circle cx="400" cy="103.89532991231911" r="4" fill="#10b981"/>
  <circle cx="570" cy="100.63222555237252" r="4" fill="#10b981"/>
  <circle cx="740" cy="85.4545454545455" r="4" fill="#10b981"/>
  <rect x="650" y="42" width="12" height="12" fill="#3b82f6"/>
  <text x="668" y="53" font-size="12" fill="#374151">React Router</text>
  <rect x="650" y="62" width="12" height="12" fill="#ef4444"/>
  <text x="668" y="73" font-size="12" fill="#374151">Wouter</text>
  <rect x="650" y="82" width="12" height="12" fill="#10b981"/>
  <text x="668" y="93" font-size="12" fill="#374151">Zen Router</text>
</svg>