<svg width="800" height="400" xmlns="http://www.w3.org/2000/svg">
  <!-- Background -->
  <rect width="800" height="400" fill="white"/>

  <!-- Title -->
  <text x="400" y="30" text-anchor="middle" font-size="18" font-weight="bold" fill="#1f2937">
    Simple Route Matching - Performance Trend
  </text>

  <!-- Grid lines -->
  <line x1="60" y1="60" x2="740" y2="60" stroke="#e5e7eb" stroke-width="1"/>
  <text x="50" y="65" text-anchor="end" font-size="12" fill="#6b7280">
    7.2M
  </text>
  <line x1="60" y1="116" x2="740" y2="116" stroke="#e5e7eb" stroke-width="1"/>
  <text x="50" y="121" text-anchor="end" font-size="12" fill="#6b7280">
    5.7M
  </text>
  <line x1="60" y1="172" x2="740" y2="172" stroke="#e5e7eb" stroke-width="1"/>
  <text x="50" y="177" text-anchor="end" font-size="12" fill="#6b7280">
    4.3M
  </text>
  <line x1="60" y1="228" x2="740" y2="228" stroke="#e5e7eb" stroke-width="1"/>
  <text x="50" y="233" text-anchor="end" font-size="12" fill="#6b7280">
    2.9M
  </text>
  <line x1="60" y1="284" x2="740" y2="284" stroke="#e5e7eb" stroke-width="1"/>
  <text x="50" y="289" text-anchor="end" font-size="12" fill="#6b7280">
    1.4M
  </text>
  <line x1="60" y1="340" x2="740" y2="340" stroke="#e5e7eb" stroke-width="1"/>
  <text x="50" y="345" text-anchor="end" font-size="12" fill="#6b7280">
    0
  </text>
  <text x="60" y="365" text-anchor="middle" font-size="10" fill="#6b7280" transform="rotate(-45, 60, 365)">
    11-07
  </text>
  <text x="230" y="365" text-anchor="middle" font-size="10" fill="#6b7280" transform="rotate(-45, 230, 365)">
    11-08
  </text>
  <text x="400" y="365" text-anchor="middle" font-size="10" fill="#6b7280" transform="rotate(-45, 400, 365)">
    11-09
  </text>
  <text x="570" y="365" text-anchor="middle" font-size="10" fill="#6b7280" transform="rotate(-45, 570, 365)">
    11-10
  </text>
  <text x="740" y="365" text-anchor="middle" font-size="10" fill="#6b7280" transform="rotate(-45, 740, 365)">
    11-11
  </text>
  <polyline points="60,338.64897345699035 230,338.60002336729565 400,338.6156771015326 570,338.6112767136143 740,338.5919352355924" fill="none" stroke="#3b82f6" stroke-width="2"/>
  <circle cx="60" cy="338.64897345699035" r="4" fill="#3b82f6"/>
  <circle cx="230" cy="338.60002336729565" r="4" fill="#3b82f6"/>
  <circle cx="400" cy="338.6156771015326" r="4" fill="#3b82f6"/>
  <circle cx="570" cy="338.6112767136143" r="4" fill="#3b82f6"/>
  <circle cx="740" cy="338.5919352355924" r="4" fill="#3b82f6"/>
  <polyline points="60,304.40361133170285 230,304.2743623492023 400,303.90182629311045 570,304.3685243192782 740,306.2263546155249" fill="none" stroke="#ef4444" stroke-width="2"/>
  <circle cx="60" cy="304.40361133170285" r="4" fill="#ef4444"/>
  <circle cx="230" cy="304.2743623492023" r="4" fill="#ef4444"/>
  <circle cx="400" cy="303.90182629311045" r="4" fill="#ef4444"/>
  <circle cx="570" cy="304.3685243192782" r="4" fill="#ef4444"/>
  <circle cx="740" cy="306.2263546155249" r="4" fill="#ef4444"/>
  <polyline points="60,98.70160765401417 230,108.38737351101926 400,106.12959759842252 570,105.09720883179395 740,85.45454545454547" fill="none" stroke="#10b981" stroke-width="2"/>
  <circle cx="60" cy="98.70160765401417" r="4" fill="#10b981"/>
  <circle cx="230" cy="108.38737351101926" r="4" fill="#10b981"/>
  <circle cx="400" cy="106.12959759842252" r="4" fill="#10b981"/>
  <circle cx="570" cy="105.09720883179395" r="4" fill="#10b981"/>
  <circle cx="740" cy="85.45454545454547" r="4" fill="#10b981"/>
  <rect x="650" y="42" width="12" height="12" fill="#3b82f6"/>
  <text x="668" y="53" font-size="12" fill="#374151">React Router</text>
  <rect x="650" y="62" width="12" height="12" fill="#ef4444"/>
  <text x="668" y="73" font-size="12" fill="#374151">Wouter</text>
  <rect x="650" y="82" width="12" height="12" fill="#10b981"/>
  <text x="668" y="93" font-size="12" fill="#374151">Zen Router</text>
</svg>