<svg width="800" height="400" xmlns="http://www.w3.org/2000/svg">
  <!-- Background -->
  <rect width="800" height="400" fill="white"/>

  <!-- Title -->
  <text x="400" y="30" text-anchor="middle" font-size="18" font-weight="bold" fill="#1f2937">
    Apply 100 inline styles - Performance Trend
  </text>

  <!-- Grid lines -->
  <line x1="60" y1="60" x2="740" y2="60" stroke="#e5e7eb" stroke-width="1"/>
  <text x="50" y="65" text-anchor="end" font-size="12" fill="#6b7280">
    343K
  </text>
  <line x1="60" y1="116" x2="740" y2="116" stroke="#e5e7eb" stroke-width="1"/>
  <text x="50" y="121" text-anchor="end" font-size="12" fill="#6b7280">
    275K
  </text>
  <line x1="60" y1="172" x2="740" y2="172" stroke="#e5e7eb" stroke-width="1"/>
  <text x="50" y="177" text-anchor="end" font-size="12" fill="#6b7280">
    206K
  </text>
  <line x1="60" y1="228" x2="740" y2="228" stroke="#e5e7eb" stroke-width="1"/>
  <text x="50" y="233" text-anchor="end" font-size="12" fill="#6b7280">
    137K
  </text>
  <line x1="60" y1="284" x2="740" y2="284" stroke="#e5e7eb" stroke-width="1"/>
  <text x="50" y="289" text-anchor="end" font-size="12" fill="#6b7280">
    69K
  </text>
  <line x1="60" y1="340" x2="740" y2="340" stroke="#e5e7eb" stroke-width="1"/>
  <text x="50" y="345" text-anchor="end" font-size="12" fill="#6b7280">
    0
  </text>
  <text x="60" y="365" text-anchor="middle" font-size="10" fill="#6b7280" transform="rotate(-45, 60, 365)">
    11-07
  </text>
  <text x="400" y="365" text-anchor="middle" font-size="10" fill="#6b7280" transform="rotate(-45, 400, 365)">
    11-08
  </text>
  <text x="740" y="365" text-anchor="middle" font-size="10" fill="#6b7280" transform="rotate(-45, 740, 365)">
    11-09
  </text>
  <polyline points="60,102.44185636157326 400,101.26368920307326 740,103.23140735306646" fill="none" stroke="#3b82f6" stroke-width="2"/>
  <circle cx="60" cy="102.44185636157326" r="4" fill="#3b82f6"/>
  <circle cx="400" cy="101.26368920307326" r="4" fill="#3b82f6"/>
  <circle cx="740" cy="103.23140735306646" r="4" fill="#3b82f6"/>
  <polyline points="60,103.86099773989812 400,103.7461633227058 740,105.9577538622851" fill="none" stroke="#ef4444" stroke-width="2"/>
  <circle cx="60" cy="103.86099773989812" r="4" fill="#ef4444"/>
  <circle cx="400" cy="103.7461633227058" r="4" fill="#ef4444"/>
  <circle cx="740" cy="105.9577538622851" r="4" fill="#ef4444"/>
  <polyline points="60,95.11387890121009 400,90.35885526621709 740,85.45454545454547" fill="none" stroke="#10b981" stroke-width="2"/>
  <circle cx="60" cy="95.11387890121009" r="4" fill="#10b981"/>
  <circle cx="400" cy="90.35885526621709" r="4" fill="#10b981"/>
  <circle cx="740" cy="85.45454545454547" r="4" fill="#10b981"/>
  <polyline points="60,103.39260260017556 400,100.24389467981618 740,100.32769819968507" fill="none" stroke="#f59e0b" stroke-width="2"/>
  <circle cx="60" cy="103.39260260017556" r="4" fill="#f59e0b"/>
  <circle cx="400" cy="100.24389467981618" r="4" fill="#f59e0b"/>
  <circle cx="740" cy="100.32769819968507" r="4" fill="#f59e0b"/>
  <rect x="650" y="42" width="12" height="12" fill="#3b82f6"/>
  <text x="668" y="53" font-size="12" fill="#374151">Silk - Apply styles</text>
  <rect x="650" y="62" width="12" height="12" fill="#ef4444"/>
  <text x="668" y="73" font-size="12" fill="#374151">Tailwind CSS - Apply styles</text>
  <rect x="650" y="82" width="12" height="12" fill="#10b981"/>
  <text x="668" y="93" font-size="12" fill="#374151">Panda CSS - Apply styles</text>
  <rect x="650" y="102" width="12" height="12" fill="#f59e0b"/>
  <text x="668" y="113" font-size="12" fill="#374151">UnoCSS - Apply styles</text>
</svg>