<svg width="800" height="400" xmlns="http://www.w3.org/2000/svg">
  <!-- Background -->
  <rect width="800" height="400" fill="white"/>

  <!-- Title -->
  <text x="400" y="30" text-anchor="middle" font-size="18" font-weight="bold" fill="#1f2937">
    Apply 100 inline styles - Performance Trend
  </text>

  <!-- Grid lines -->
  <line x1="60" y1="60" x2="740" y2="60" stroke="#e5e7eb" stroke-width="1"/>
  <text x="50" y="65" text-anchor="end" font-size="12" fill="#6b7280">
    357K
  </text>
  <line x1="60" y1="116" x2="740" y2="116" stroke="#e5e7eb" stroke-width="1"/>
  <text x="50" y="121" text-anchor="end" font-size="12" fill="#6b7280">
    285K
  </text>
  <line x1="60" y1="172" x2="740" y2="172" stroke="#e5e7eb" stroke-width="1"/>
  <text x="50" y="177" text-anchor="end" font-size="12" fill="#6b7280">
    214K
  </text>
  <line x1="60" y1="228" x2="740" y2="228" stroke="#e5e7eb" stroke-width="1"/>
  <text x="50" y="233" text-anchor="end" font-size="12" fill="#6b7280">
    143K
  </text>
  <line x1="60" y1="284" x2="740" y2="284" stroke="#e5e7eb" stroke-width="1"/>
  <text x="50" y="289" text-anchor="end" font-size="12" fill="#6b7280">
    71K
  </text>
  <line x1="60" y1="340" x2="740" y2="340" stroke="#e5e7eb" stroke-width="1"/>
  <text x="50" y="345" text-anchor="end" font-size="12" fill="#6b7280">
    0
  </text>
  <text x="60" y="365" text-anchor="middle" font-size="10" fill="#6b7280" transform="rotate(-45, 60, 365)">
    11-07
  </text>
  <text x="230" y="365" text-anchor="middle" font-size="10" fill="#6b7280" transform="rotate(-45, 230, 365)">
    11-08
  </text>
  <text x="400" y="365" text-anchor="middle" font-size="10" fill="#6b7280" transform="rotate(-45, 400, 365)">
    11-09
  </text>
  <text x="570" y="365" text-anchor="middle" font-size="10" fill="#6b7280" transform="rotate(-45, 570, 365)">
    11-10
  </text>
  <text x="740" y="365" text-anchor="middle" font-size="10" fill="#6b7280" transform="rotate(-45, 740, 365)">
    11-11
  </text>
  <polyline points="60,111.35476761452605 230,110.22080394728096 400,86.17379098233494 570,110.18473139949552 740,85.4545454545455" fill="none" stroke="#3b82f6" stroke-width="2"/>
  <circle cx="60" cy="111.35476761452605" r="4" fill="#3b82f6"/>
  <circle cx="230" cy="110.22080394728096" r="4" fill="#3b82f6"/>
  <circle cx="400" cy="86.17379098233494" r="4" fill="#3b82f6"/>
  <circle cx="570" cy="110.18473139949552" r="4" fill="#3b82f6"/>
  <circle cx="740" cy="85.4545454545455" r="4" fill="#3b82f6"/>
  <polyline points="60,112.7206644230514 230,112.61013846253223 400,109.36020228515474 570,112.5067208269362 740,100.51646423463606" fill="none" stroke="#ef4444" stroke-width="2"/>
  <circle cx="60" cy="112.7206644230514" r="4" fill="#ef4444"/>
  <circle cx="230" cy="112.61013846253223" r="4" fill="#ef4444"/>
  <circle cx="400" cy="109.36020228515474" r="4" fill="#ef4444"/>
  <circle cx="570" cy="112.5067208269362" r="4" fill="#ef4444"/>
  <circle cx="740" cy="100.51646423463606" r="4" fill="#ef4444"/>
  <polyline points="60,104.30172753061947 230,99.72510697209142 400,96.32260633944747 570,97.00434825794972 740,100.76849794682718" fill="none" stroke="#10b981" stroke-width="2"/>
  <circle cx="60" cy="104.30172753061947" r="4" fill="#10b981"/>
  <circle cx="230" cy="99.72510697209142" r="4" fill="#10b981"/>
  <circle cx="400" cy="96.32260633944747" r="4" fill="#10b981"/>
  <circle cx="570" cy="97.00434825794972" r="4" fill="#10b981"/>
  <circle cx="740" cy="100.76849794682718" r="4" fill="#10b981"/>
  <polyline points="60,112.2698429360259 230,109.23927095420265 400,101.83283064521765 570,109.13731387479936 740,100.66198173514294" fill="none" stroke="#f59e0b" stroke-width="2"/>
  <circle cx="60" cy="112.2698429360259" r="4" fill="#f59e0b"/>
  <circle cx="230" cy="109.23927095420265" r="4" fill="#f59e0b"/>
  <circle cx="400" cy="101.83283064521765" r="4" fill="#f59e0b"/>
  <circle cx="570" cy="109.13731387479936" r="4" fill="#f59e0b"/>
  <circle cx="740" cy="100.66198173514294" r="4" fill="#f59e0b"/>
  <rect x="650" y="42" width="12" height="12" fill="#3b82f6"/>
  <text x="668" y="53" font-size="12" fill="#374151">Silk - Apply styles</text>
  <rect x="650" y="62" width="12" height="12" fill="#ef4444"/>
  <text x="668" y="73" font-size="12" fill="#374151">Tailwind CSS - Apply styles</text>
  <rect x="650" y="82" width="12" height="12" fill="#10b981"/>
  <text x="668" y="93" font-size="12" fill="#374151">Panda CSS - Apply styles</text>
  <rect x="650" y="102" width="12" height="12" fill="#f59e0b"/>
  <text x="668" y="113" font-size="12" fill="#374151">UnoCSS - Apply styles</text>
</svg>