<svg width="800" height="400" xmlns="http://www.w3.org/2000/svg">
  <!-- Background -->
  <rect width="800" height="400" fill="white"/>

  <!-- Title -->
  <text x="400" y="30" text-anchor="middle" font-size="18" font-weight="bold" fill="#1f2937">
    Apply 100 inline styles - Performance Trend
  </text>

  <!-- Grid lines -->
  <line x1="60" y1="60" x2="740" y2="60" stroke="#e5e7eb" stroke-width="1"/>
  <text x="50" y="65" text-anchor="end" font-size="12" fill="#6b7280">
    362K
  </text>
  <line x1="60" y1="116" x2="740" y2="116" stroke="#e5e7eb" stroke-width="1"/>
  <text x="50" y="121" text-anchor="end" font-size="12" fill="#6b7280">
    290K
  </text>
  <line x1="60" y1="172" x2="740" y2="172" stroke="#e5e7eb" stroke-width="1"/>
  <text x="50" y="177" text-anchor="end" font-size="12" fill="#6b7280">
    217K
  </text>
  <line x1="60" y1="228" x2="740" y2="228" stroke="#e5e7eb" stroke-width="1"/>
  <text x="50" y="233" text-anchor="end" font-size="12" fill="#6b7280">
    145K
  </text>
  <line x1="60" y1="284" x2="740" y2="284" stroke="#e5e7eb" stroke-width="1"/>
  <text x="50" y="289" text-anchor="end" font-size="12" fill="#6b7280">
    72K
  </text>
  <line x1="60" y1="340" x2="740" y2="340" stroke="#e5e7eb" stroke-width="1"/>
  <text x="50" y="345" text-anchor="end" font-size="12" fill="#6b7280">
    0
  </text>
  <text x="60" y="365" text-anchor="middle" font-size="10" fill="#6b7280" transform="rotate(-45, 60, 365)">
    11-07
  </text>
  <text x="230" y="365" text-anchor="middle" font-size="10" fill="#6b7280" transform="rotate(-45, 230, 365)">
    11-08
  </text>
  <text x="400" y="365" text-anchor="middle" font-size="10" fill="#6b7280" transform="rotate(-45, 400, 365)">
    11-09
  </text>
  <text x="570" y="365" text-anchor="middle" font-size="10" fill="#6b7280" transform="rotate(-45, 570, 365)">
    11-10
  </text>
  <text x="740" y="365" text-anchor="middle" font-size="10" fill="#6b7280" transform="rotate(-45, 740, 365)">
    11-11
  </text>
  <polyline points="60,114.84250365141057 230,113.72583737499886 400,90.0456356171891 570,113.69031507496425 740,85.45454545454547" fill="none" stroke="#3b82f6" stroke-width="2"/>
  <circle cx="60" cy="114.84250365141057" r="4" fill="#3b82f6"/>
  <circle cx="230" cy="113.72583737499886" r="4" fill="#3b82f6"/>
  <circle cx="400" cy="90.0456356171891" r="4" fill="#3b82f6"/>
  <circle cx="570" cy="113.69031507496425" r="4" fill="#3b82f6"/>
  <circle cx="740" cy="85.45454545454547" r="4" fill="#3b82f6"/>
  <polyline points="60,116.18756517956697 230,116.07872517318512 400,112.8783632616043 570,115.97688506190815 740,104.95239112036498" fill="none" stroke="#ef4444" stroke-width="2"/>
  <circle cx="60" cy="116.18756517956697" r="4" fill="#ef4444"/>
  <circle cx="230" cy="116.07872517318512" r="4" fill="#ef4444"/>
  <circle cx="400" cy="112.8783632616043" r="4" fill="#ef4444"/>
  <circle cx="570" cy="115.97688506190815" r="4" fill="#ef4444"/>
  <circle cx="740" cy="104.95239112036498" r="4" fill="#ef4444"/>
  <polyline points="60,107.89705007527229 230,103.39024091968753 400,100.0396417588048 570,100.7109844407596 740,99.56221683991896" fill="none" stroke="#10b981" stroke-width="2"/>
  <circle cx="60" cy="107.89705007527229" r="4" fill="#10b981"/>
  <circle cx="230" cy="103.39024091968753" r="4" fill="#10b981"/>
  <circle cx="400" cy="100.0396417588048" r="4" fill="#10b981"/>
  <circle cx="570" cy="100.7109844407596" r="4" fill="#10b981"/>
  <circle cx="740" cy="99.56221683991896" r="4" fill="#10b981"/>
  <polyline points="60,115.74362048734756 230,112.75927660747556 400,105.46581354494865 570,112.65887477318427 740,109.54918077609491" fill="none" stroke="#f59e0b" stroke-width="2"/>
  <circle cx="60" cy="115.74362048734756" r="4" fill="#f59e0b"/>
  <circle cx="230" cy="112.75927660747556" r="4" fill="#f59e0b"/>
  <circle cx="400" cy="105.46581354494865" r="4" fill="#f59e0b"/>
  <circle cx="570" cy="112.65887477318427" r="4" fill="#f59e0b"/>
  <circle cx="740" cy="109.54918077609491" r="4" fill="#f59e0b"/>
  <rect x="650" y="42" width="12" height="12" fill="#3b82f6"/>
  <text x="668" y="53" font-size="12" fill="#374151">Silk - Apply styles</text>
  <rect x="650" y="62" width="12" height="12" fill="#ef4444"/>
  <text x="668" y="73" font-size="12" fill="#374151">Tailwind CSS - Apply styles</text>
  <rect x="650" y="82" width="12" height="12" fill="#10b981"/>
  <text x="668" y="93" font-size="12" fill="#374151">Panda CSS - Apply styles</text>
  <rect x="650" y="102" width="12" height="12" fill="#f59e0b"/>
  <text x="668" y="113" font-size="12" fill="#374151">UnoCSS - Apply styles</text>
</svg>