<svg width="800" height="400" xmlns="http://www.w3.org/2000/svg">
  <!-- Background -->
  <rect width="800" height="400" fill="white"/>

  <!-- Title -->
  <text x="400" y="30" text-anchor="middle" font-size="18" font-weight="bold" fill="#1f2937">
    Apply 100 inline styles - Performance Trend
  </text>

  <!-- Grid lines -->
  <line x1="60" y1="60" x2="740" y2="60" stroke="#e5e7eb" stroke-width="1"/>
  <text x="50" y="65" text-anchor="end" font-size="12" fill="#6b7280">
    356K
  </text>
  <line x1="60" y1="116" x2="740" y2="116" stroke="#e5e7eb" stroke-width="1"/>
  <text x="50" y="121" text-anchor="end" font-size="12" fill="#6b7280">
    284K
  </text>
  <line x1="60" y1="172" x2="740" y2="172" stroke="#e5e7eb" stroke-width="1"/>
  <text x="50" y="177" text-anchor="end" font-size="12" fill="#6b7280">
    213K
  </text>
  <line x1="60" y1="228" x2="740" y2="228" stroke="#e5e7eb" stroke-width="1"/>
  <text x="50" y="233" text-anchor="end" font-size="12" fill="#6b7280">
    142K
  </text>
  <line x1="60" y1="284" x2="740" y2="284" stroke="#e5e7eb" stroke-width="1"/>
  <text x="50" y="289" text-anchor="end" font-size="12" fill="#6b7280">
    71K
  </text>
  <line x1="60" y1="340" x2="740" y2="340" stroke="#e5e7eb" stroke-width="1"/>
  <text x="50" y="345" text-anchor="end" font-size="12" fill="#6b7280">
    0
  </text>
  <text x="60" y="365" text-anchor="middle" font-size="10" fill="#6b7280" transform="rotate(-45, 60, 365)">
    11-07
  </text>
  <text x="400" y="365" text-anchor="middle" font-size="10" fill="#6b7280" transform="rotate(-45, 400, 365)">
    11-08
  </text>
  <text x="740" y="365" text-anchor="middle" font-size="10" fill="#6b7280" transform="rotate(-45, 740, 365)">
    11-09
  </text>
  <polyline points="60,110.70687525746774 400,109.569698374773 740,85.4545454545455" fill="none" stroke="#3b82f6" stroke-width="2"/>
  <circle cx="60" cy="110.70687525746774" r="4" fill="#3b82f6"/>
  <circle cx="400" cy="109.569698374773" r="4" fill="#3b82f6"/>
  <circle cx="740" cy="85.4545454545455" r="4" fill="#3b82f6"/>
  <polyline points="60,112.07664249046485 400,111.96580334202423 740,108.70665809963242" fill="none" stroke="#ef4444" stroke-width="2"/>
  <circle cx="60" cy="112.07664249046485" r="4" fill="#ef4444"/>
  <circle cx="400" cy="111.96580334202423" r="4" fill="#ef4444"/>
  <circle cx="740" cy="108.70665809963242" r="4" fill="#ef4444"/>
  <polyline points="60,103.63384957964911 400,99.04426064452252 740,95.63211863807089" fill="none" stroke="#10b981" stroke-width="2"/>
  <circle cx="60" cy="103.63384957964911" r="4" fill="#10b981"/>
  <circle cx="400" cy="99.04426064452252" r="4" fill="#10b981"/>
  <circle cx="740" cy="95.63211863807089" r="4" fill="#10b981"/>
  <polyline points="60,111.62454354931185 400,108.58538409595442 740,101.15795679319248" fill="none" stroke="#f59e0b" stroke-width="2"/>
  <circle cx="60" cy="111.62454354931185" r="4" fill="#f59e0b"/>
  <circle cx="400" cy="108.58538409595442" r="4" fill="#f59e0b"/>
  <circle cx="740" cy="101.15795679319248" r="4" fill="#f59e0b"/>
  <rect x="650" y="42" width="12" height="12" fill="#3b82f6"/>
  <text x="668" y="53" font-size="12" fill="#374151">Silk - Apply styles</text>
  <rect x="650" y="62" width="12" height="12" fill="#ef4444"/>
  <text x="668" y="73" font-size="12" fill="#374151">Tailwind CSS - Apply styles</text>
  <rect x="650" y="82" width="12" height="12" fill="#10b981"/>
  <text x="668" y="93" font-size="12" fill="#374151">Panda CSS - Apply styles</text>
  <rect x="650" y="102" width="12" height="12" fill="#f59e0b"/>
  <text x="668" y="113" font-size="12" fill="#374151">UnoCSS - Apply styles</text>
</svg>