<svg width="800" height="400" xmlns="http://www.w3.org/2000/svg">
  <!-- Background -->
  <rect width="800" height="400" fill="white"/>

  <!-- Title -->
  <text x="400" y="30" text-anchor="middle" font-size="18" font-weight="bold" fill="#1f2937">
    Conditional styling (1000 iterations) - Performance Trend
  </text>

  <!-- Grid lines -->
  <line x1="60" y1="60" x2="740" y2="60" stroke="#e5e7eb" stroke-width="1"/>
  <text x="50" y="65" text-anchor="end" font-size="12" fill="#6b7280">
    3.1M
  </text>
  <line x1="60" y1="116" x2="740" y2="116" stroke="#e5e7eb" stroke-width="1"/>
  <text x="50" y="121" text-anchor="end" font-size="12" fill="#6b7280">
    2.4M
  </text>
  <line x1="60" y1="172" x2="740" y2="172" stroke="#e5e7eb" stroke-width="1"/>
  <text x="50" y="177" text-anchor="end" font-size="12" fill="#6b7280">
    1.8M
  </text>
  <line x1="60" y1="228" x2="740" y2="228" stroke="#e5e7eb" stroke-width="1"/>
  <text x="50" y="233" text-anchor="end" font-size="12" fill="#6b7280">
    1.2M
  </text>
  <line x1="60" y1="284" x2="740" y2="284" stroke="#e5e7eb" stroke-width="1"/>
  <text x="50" y="289" text-anchor="end" font-size="12" fill="#6b7280">
    612K
  </text>
  <line x1="60" y1="340" x2="740" y2="340" stroke="#e5e7eb" stroke-width="1"/>
  <text x="50" y="345" text-anchor="end" font-size="12" fill="#6b7280">
    0
  </text>
  <text x="60" y="365" text-anchor="middle" font-size="10" fill="#6b7280" transform="rotate(-45, 60, 365)">
    11-07
  </text>
  <text x="286.66666666666663" y="365" text-anchor="middle" font-size="10" fill="#6b7280" transform="rotate(-45, 286.66666666666663, 365)">
    11-08
  </text>
  <text x="513.3333333333333" y="365" text-anchor="middle" font-size="10" fill="#6b7280" transform="rotate(-45, 513.3333333333333, 365)">
    11-09
  </text>
  <text x="740" y="365" text-anchor="middle" font-size="10" fill="#6b7280" transform="rotate(-45, 740, 365)">
    11-10
  </text>
  <polyline points="60,108.90301301232097 286.66666666666663,104.67954502863563 513.3333333333333,91.94435102177638 740,85.45454545454547" fill="none" stroke="#3b82f6" stroke-width="2"/>
  <circle cx="60" cy="108.90301301232097" r="4" fill="#3b82f6"/>
  <circle cx="286.66666666666663" cy="104.67954502863563" r="4" fill="#3b82f6"/>
  <circle cx="513.3333333333333" cy="91.94435102177638" r="4" fill="#3b82f6"/>
  <circle cx="740" cy="85.45454545454547" r="4" fill="#3b82f6"/>
  <polyline points="60,106.15266745468918 286.66666666666663,104.20667149233572 513.3333333333333,88.48531598275443 740,85.62732323129518" fill="none" stroke="#ef4444" stroke-width="2"/>
  <circle cx="60" cy="106.15266745468918" r="4" fill="#ef4444"/>
  <circle cx="286.66666666666663" cy="104.20667149233572" r="4" fill="#ef4444"/>
  <circle cx="513.3333333333333" cy="88.48531598275443" r="4" fill="#ef4444"/>
  <circle cx="740" cy="85.62732323129518" r="4" fill="#ef4444"/>
  <polyline points="60,100.45442274443889 286.66666666666663,107.06989612848798 513.3333333333333,92.544438686467 740,85.93725252131358" fill="none" stroke="#10b981" stroke-width="2"/>
  <circle cx="60" cy="100.45442274443889" r="4" fill="#10b981"/>
  <circle cx="286.66666666666663" cy="107.06989612848798" r="4" fill="#10b981"/>
  <circle cx="513.3333333333333" cy="92.544438686467" r="4" fill="#10b981"/>
  <circle cx="740" cy="85.93725252131358" r="4" fill="#10b981"/>
  <polyline points="60,101.58287551040044 286.66666666666663,103.95582075983154 513.3333333333333,95.3311637956223 740,88.02058974293834" fill="none" stroke="#f59e0b" stroke-width="2"/>
  <circle cx="60" cy="101.58287551040044" r="4" fill="#f59e0b"/>
  <circle cx="286.66666666666663" cy="103.95582075983154" r="4" fill="#f59e0b"/>
  <circle cx="513.3333333333333" cy="95.3311637956223" r="4" fill="#f59e0b"/>
  <circle cx="740" cy="88.02058974293834" r="4" fill="#f59e0b"/>
  <rect x="650" y="42" width="12" height="12" fill="#3b82f6"/>
  <text x="668" y="53" font-size="12" fill="#374151">Silk - Conditional styles</text>
  <rect x="650" y="62" width="12" height="12" fill="#ef4444"/>
  <text x="668" y="73" font-size="12" fill="#374151">Tailwind CSS - Conditional styles</text>
  <rect x="650" y="82" width="12" height="12" fill="#10b981"/>
  <text x="668" y="93" font-size="12" fill="#374151">Panda CSS - Conditional styles</text>
  <rect x="650" y="102" width="12" height="12" fill="#f59e0b"/>
  <text x="668" y="113" font-size="12" fill="#374151">UnoCSS - Conditional styles</text>
</svg>