<svg width="800" height="400" xmlns="http://www.w3.org/2000/svg">
  <!-- Background -->
  <rect width="800" height="400" fill="white"/>

  <!-- Title -->
  <text x="400" y="30" text-anchor="middle" font-size="18" font-weight="bold" fill="#1f2937">
    Responsive breakpoint matching - Performance Trend
  </text>

  <!-- Grid lines -->
  <line x1="60" y1="60" x2="740" y2="60" stroke="#e5e7eb" stroke-width="1"/>
  <text x="50" y="65" text-anchor="end" font-size="12" fill="#6b7280">
    340K
  </text>
  <line x1="60" y1="116" x2="740" y2="116" stroke="#e5e7eb" stroke-width="1"/>
  <text x="50" y="121" text-anchor="end" font-size="12" fill="#6b7280">
    272K
  </text>
  <line x1="60" y1="172" x2="740" y2="172" stroke="#e5e7eb" stroke-width="1"/>
  <text x="50" y="177" text-anchor="end" font-size="12" fill="#6b7280">
    204K
  </text>
  <line x1="60" y1="228" x2="740" y2="228" stroke="#e5e7eb" stroke-width="1"/>
  <text x="50" y="233" text-anchor="end" font-size="12" fill="#6b7280">
    136K
  </text>
  <line x1="60" y1="284" x2="740" y2="284" stroke="#e5e7eb" stroke-width="1"/>
  <text x="50" y="289" text-anchor="end" font-size="12" fill="#6b7280">
    68K
  </text>
  <line x1="60" y1="340" x2="740" y2="340" stroke="#e5e7eb" stroke-width="1"/>
  <text x="50" y="345" text-anchor="end" font-size="12" fill="#6b7280">
    0
  </text>
  <text x="60" y="365" text-anchor="middle" font-size="10" fill="#6b7280" transform="rotate(-45, 60, 365)">
    11-07
  </text>
  <text x="400" y="365" text-anchor="middle" font-size="10" fill="#6b7280" transform="rotate(-45, 400, 365)">
    11-08
  </text>
  <text x="740" y="365" text-anchor="middle" font-size="10" fill="#6b7280" transform="rotate(-45, 740, 365)">
    11-09
  </text>
  <polyline points="60,96.64505539057399 400,92.5917087914626 740,92.78486997058332" fill="none" stroke="#3b82f6" stroke-width="2"/>
  <circle cx="60" cy="96.64505539057399" r="4" fill="#3b82f6"/>
  <circle cx="400" cy="92.5917087914626" r="4" fill="#3b82f6"/>
  <circle cx="740" cy="92.78486997058332" r="4" fill="#3b82f6"/>
  <polyline points="60,90.31526715074142 400,86.22295713403088 740,86.42500385379827" fill="none" stroke="#ef4444" stroke-width="2"/>
  <circle cx="60" cy="90.31526715074142" r="4" fill="#ef4444"/>
  <circle cx="400" cy="86.22295713403088" r="4" fill="#ef4444"/>
  <circle cx="740" cy="86.42500385379827" r="4" fill="#ef4444"/>
  <polyline points="60,96.54238872375495 400,92.92008782752873 740,92.74755546856366" fill="none" stroke="#10b981" stroke-width="2"/>
  <circle cx="60" cy="96.54238872375495" r="4" fill="#10b981"/>
  <circle cx="400" cy="92.92008782752873" r="4" fill="#10b981"/>
  <circle cx="740" cy="92.74755546856366" r="4" fill="#10b981"/>
  <polyline points="60,89.44056981567098 400,86.83174551001733 740,85.4545454545455" fill="none" stroke="#f59e0b" stroke-width="2"/>
  <circle cx="60" cy="89.44056981567098" r="4" fill="#f59e0b"/>
  <circle cx="400" cy="86.83174551001733" r="4" fill="#f59e0b"/>
  <circle cx="740" cy="85.4545454545455" r="4" fill="#f59e0b"/>
  <rect x="650" y="42" width="12" height="12" fill="#3b82f6"/>
  <text x="668" y="53" font-size="12" fill="#374151">Silk - Match breakpoint 1000x</text>
  <rect x="650" y="62" width="12" height="12" fill="#ef4444"/>
  <text x="668" y="73" font-size="12" fill="#374151">Tailwind CSS - Match breakpoint 1000x</text>
  <rect x="650" y="82" width="12" height="12" fill="#10b981"/>
  <text x="668" y="93" font-size="12" fill="#374151">Panda CSS - Match breakpoint 1000x</text>
  <rect x="650" y="102" width="12" height="12" fill="#f59e0b"/>
  <text x="668" y="113" font-size="12" fill="#374151">UnoCSS - Match breakpoint 1000x</text>
</svg>