<svg width="800" height="400" xmlns="http://www.w3.org/2000/svg">
  <!-- Background -->
  <rect width="800" height="400" fill="white"/>

  <!-- Title -->
  <text x="400" y="30" text-anchor="middle" font-size="18" font-weight="bold" fill="#1f2937">
    String concatenation (complex className) - Performance Trend
  </text>

  <!-- Grid lines -->
  <line x1="60" y1="60" x2="740" y2="60" stroke="#e5e7eb" stroke-width="1"/>
  <text x="50" y="65" text-anchor="end" font-size="12" fill="#6b7280">
    21.8M
  </text>
  <line x1="60" y1="116" x2="740" y2="116" stroke="#e5e7eb" stroke-width="1"/>
  <text x="50" y="121" text-anchor="end" font-size="12" fill="#6b7280">
    17.4M
  </text>
  <line x1="60" y1="172" x2="740" y2="172" stroke="#e5e7eb" stroke-width="1"/>
  <text x="50" y="177" text-anchor="end" font-size="12" fill="#6b7280">
    13.1M
  </text>
  <line x1="60" y1="228" x2="740" y2="228" stroke="#e5e7eb" stroke-width="1"/>
  <text x="50" y="233" text-anchor="end" font-size="12" fill="#6b7280">
    8.7M
  </text>
  <line x1="60" y1="284" x2="740" y2="284" stroke="#e5e7eb" stroke-width="1"/>
  <text x="50" y="289" text-anchor="end" font-size="12" fill="#6b7280">
    4.4M
  </text>
  <line x1="60" y1="340" x2="740" y2="340" stroke="#e5e7eb" stroke-width="1"/>
  <text x="50" y="345" text-anchor="end" font-size="12" fill="#6b7280">
    0
  </text>
  <text x="60" y="365" text-anchor="middle" font-size="10" fill="#6b7280" transform="rotate(-45, 60, 365)">
    11-07
  </text>
  <text x="230" y="365" text-anchor="middle" font-size="10" fill="#6b7280" transform="rotate(-45, 230, 365)">
    11-08
  </text>
  <text x="400" y="365" text-anchor="middle" font-size="10" fill="#6b7280" transform="rotate(-45, 400, 365)">
    11-09
  </text>
  <text x="570" y="365" text-anchor="middle" font-size="10" fill="#6b7280" transform="rotate(-45, 570, 365)">
    11-10
  </text>
  <text x="740" y="365" text-anchor="middle" font-size="10" fill="#6b7280" transform="rotate(-45, 740, 365)">
    11-11
  </text>
  <polyline points="60,108.94319904401036 230,108.50896170980585 400,99.3918824688696 570,108.75492340465223 740,95.20693552535374" fill="none" stroke="#3b82f6" stroke-width="2"/>
  <circle cx="60" cy="108.94319904401036" r="4" fill="#3b82f6"/>
  <circle cx="230" cy="108.50896170980585" r="4" fill="#3b82f6"/>
  <circle cx="400" cy="99.3918824688696" r="4" fill="#3b82f6"/>
  <circle cx="570" cy="108.75492340465223" r="4" fill="#3b82f6"/>
  <circle cx="740" cy="95.20693552535374" r="4" fill="#3b82f6"/>
  <polyline points="60,107.64614651016194 230,107.40591912865045 400,101.3657804602258 570,108.53025480578006 740,85.4545454545455" fill="none" stroke="#ef4444" stroke-width="2"/>
  <circle cx="60" cy="107.64614651016194" r="4" fill="#ef4444"/>
  <circle cx="230" cy="107.40591912865045" r="4" fill="#ef4444"/>
  <circle cx="400" cy="101.3657804602258" r="4" fill="#ef4444"/>
  <circle cx="570" cy="108.53025480578006" r="4" fill="#ef4444"/>
  <circle cx="740" cy="85.4545454545455" r="4" fill="#ef4444"/>
  <polyline points="60,108.15665724257443 230,108.10028595097492 400,102.26151157581657 570,108.89405174212385 740,90.13389784476388" fill="none" stroke="#10b981" stroke-width="2"/>
  <circle cx="60" cy="108.15665724257443" r="4" fill="#10b981"/>
  <circle cx="230" cy="108.10028595097492" r="4" fill="#10b981"/>
  <circle cx="400" cy="102.26151157581657" r="4" fill="#10b981"/>
  <circle cx="570" cy="108.89405174212385" r="4" fill="#10b981"/>
  <circle cx="740" cy="90.13389784476388" r="4" fill="#10b981"/>
  <polyline points="60,108.22721581884133 230,109.78981819821774 400,97.69140236564027 570,107.9420929118881 740,91.33733448135786" fill="none" stroke="#f59e0b" stroke-width="2"/>
  <circle cx="60" cy="108.22721581884133" r="4" fill="#f59e0b"/>
  <circle cx="230" cy="109.78981819821774" r="4" fill="#f59e0b"/>
  <circle cx="400" cy="97.69140236564027" r="4" fill="#f59e0b"/>
  <circle cx="570" cy="107.9420929118881" r="4" fill="#f59e0b"/>
  <circle cx="740" cy="91.33733448135786" r="4" fill="#f59e0b"/>
  <rect x="650" y="42" width="12" height="12" fill="#3b82f6"/>
  <text x="668" y="53" font-size="12" fill="#374151">Silk - Concat 10 classes</text>
  <rect x="650" y="62" width="12" height="12" fill="#ef4444"/>
  <text x="668" y="73" font-size="12" fill="#374151">Tailwind CSS - Concat 10 classes</text>
  <rect x="650" y="82" width="12" height="12" fill="#10b981"/>
  <text x="668" y="93" font-size="12" fill="#374151">Panda CSS - Concat 10 classes</text>
  <rect x="650" y="102" width="12" height="12" fill="#f59e0b"/>
  <text x="668" y="113" font-size="12" fill="#374151">UnoCSS - Concat 10 classes</text>
</svg>