<svg width="800" height="400" xmlns="http://www.w3.org/2000/svg">
  <!-- Background -->
  <rect width="800" height="400" fill="white"/>

  <!-- Title -->
  <text x="400" y="30" text-anchor="middle" font-size="18" font-weight="bold" fill="#1f2937">
    Theme toggle (dark/light mode) - Performance Trend
  </text>

  <!-- Grid lines -->
  <line x1="60" y1="60" x2="740" y2="60" stroke="#e5e7eb" stroke-width="1"/>
  <text x="50" y="65" text-anchor="end" font-size="12" fill="#6b7280">
    598K
  </text>
  <line x1="60" y1="116" x2="740" y2="116" stroke="#e5e7eb" stroke-width="1"/>
  <text x="50" y="121" text-anchor="end" font-size="12" fill="#6b7280">
    479K
  </text>
  <line x1="60" y1="172" x2="740" y2="172" stroke="#e5e7eb" stroke-width="1"/>
  <text x="50" y="177" text-anchor="end" font-size="12" fill="#6b7280">
    359K
  </text>
  <line x1="60" y1="228" x2="740" y2="228" stroke="#e5e7eb" stroke-width="1"/>
  <text x="50" y="233" text-anchor="end" font-size="12" fill="#6b7280">
    239K
  </text>
  <line x1="60" y1="284" x2="740" y2="284" stroke="#e5e7eb" stroke-width="1"/>
  <text x="50" y="289" text-anchor="end" font-size="12" fill="#6b7280">
    120K
  </text>
  <line x1="60" y1="340" x2="740" y2="340" stroke="#e5e7eb" stroke-width="1"/>
  <text x="50" y="345" text-anchor="end" font-size="12" fill="#6b7280">
    0
  </text>
  <text x="60" y="365" text-anchor="middle" font-size="10" fill="#6b7280" transform="rotate(-45, 60, 365)">
    11-07
  </text>
  <text x="230" y="365" text-anchor="middle" font-size="10" fill="#6b7280" transform="rotate(-45, 230, 365)">
    11-08
  </text>
  <text x="400" y="365" text-anchor="middle" font-size="10" fill="#6b7280" transform="rotate(-45, 400, 365)">
    11-09
  </text>
  <text x="570" y="365" text-anchor="middle" font-size="10" fill="#6b7280" transform="rotate(-45, 570, 365)">
    11-10
  </text>
  <text x="740" y="365" text-anchor="middle" font-size="10" fill="#6b7280" transform="rotate(-45, 740, 365)">
    11-11
  </text>
  <polyline points="60,98.50297318301111 230,104.51120805239873 400,112.47175456176734 570,97.83587030145881 740,87.57362764264855" fill="none" stroke="#3b82f6" stroke-width="2"/>
  <circle cx="60" cy="98.50297318301111" r="4" fill="#3b82f6"/>
  <circle cx="230" cy="104.51120805239873" r="4" fill="#3b82f6"/>
  <circle cx="400" cy="112.47175456176734" r="4" fill="#3b82f6"/>
  <circle cx="570" cy="97.83587030145881" r="4" fill="#3b82f6"/>
  <circle cx="740" cy="87.57362764264855" r="4" fill="#3b82f6"/>
  <polyline points="60,98.32046164683945 230,99.6758255741733 400,120.44798839473393 570,98.05096559893286 740,85.45454545454547" fill="none" stroke="#ef4444" stroke-width="2"/>
  <circle cx="60" cy="98.32046164683945" r="4" fill="#ef4444"/>
  <circle cx="230" cy="99.6758255741733" r="4" fill="#ef4444"/>
  <circle cx="400" cy="120.44798839473393" r="4" fill="#ef4444"/>
  <circle cx="570" cy="98.05096559893286" r="4" fill="#ef4444"/>
  <circle cx="740" cy="85.45454545454547" r="4" fill="#ef4444"/>
  <polyline points="60,98.99489457142522 230,98.19537279149958 400,90.35404541221436 570,98.64666752863292 740,86.45444295912918" fill="none" stroke="#10b981" stroke-width="2"/>
  <circle cx="60" cy="98.99489457142522" r="4" fill="#10b981"/>
  <circle cx="230" cy="98.19537279149958" r="4" fill="#10b981"/>
  <circle cx="400" cy="90.35404541221436" r="4" fill="#10b981"/>
  <circle cx="570" cy="98.64666752863292" r="4" fill="#10b981"/>
  <circle cx="740" cy="86.45444295912918" r="4" fill="#10b981"/>
  <polyline points="60,98.36848838607224 230,98.17771218723516 400,92.07882720669892 570,97.66074532034341 740,91.11243634004208" fill="none" stroke="#f59e0b" stroke-width="2"/>
  <circle cx="60" cy="98.36848838607224" r="4" fill="#f59e0b"/>
  <circle cx="230" cy="98.17771218723516" r="4" fill="#f59e0b"/>
  <circle cx="400" cy="92.07882720669892" r="4" fill="#f59e0b"/>
  <circle cx="570" cy="97.66074532034341" r="4" fill="#f59e0b"/>
  <circle cx="740" cy="91.11243634004208" r="4" fill="#f59e0b"/>
  <rect x="650" y="42" width="12" height="12" fill="#3b82f6"/>
  <text x="668" y="53" font-size="12" fill="#374151">Silk - Toggle theme 1000x</text>
  <rect x="650" y="62" width="12" height="12" fill="#ef4444"/>
  <text x="668" y="73" font-size="12" fill="#374151">Tailwind CSS - Toggle theme 1000x</text>
  <rect x="650" y="82" width="12" height="12" fill="#10b981"/>
  <text x="668" y="93" font-size="12" fill="#374151">Panda CSS - Toggle theme 1000x</text>
  <rect x="650" y="102" width="12" height="12" fill="#f59e0b"/>
  <text x="668" y="113" font-size="12" fill="#374151">UnoCSS - Toggle theme 1000x</text>
</svg>