<svg width="800" height="400" xmlns="http://www.w3.org/2000/svg">
  <!-- Background -->
  <rect width="800" height="400" fill="white"/>

  <!-- Title -->
  <text x="400" y="30" text-anchor="middle" font-size="18" font-weight="bold" fill="#1f2937">
    Theme toggle (dark/light mode) - Performance Trend
  </text>

  <!-- Grid lines -->
  <line x1="60" y1="60" x2="740" y2="60" stroke="#e5e7eb" stroke-width="1"/>
  <text x="50" y="65" text-anchor="end" font-size="12" fill="#6b7280">
    599K
  </text>
  <line x1="60" y1="116" x2="740" y2="116" stroke="#e5e7eb" stroke-width="1"/>
  <text x="50" y="121" text-anchor="end" font-size="12" fill="#6b7280">
    479K
  </text>
  <line x1="60" y1="172" x2="740" y2="172" stroke="#e5e7eb" stroke-width="1"/>
  <text x="50" y="177" text-anchor="end" font-size="12" fill="#6b7280">
    359K
  </text>
  <line x1="60" y1="228" x2="740" y2="228" stroke="#e5e7eb" stroke-width="1"/>
  <text x="50" y="233" text-anchor="end" font-size="12" fill="#6b7280">
    240K
  </text>
  <line x1="60" y1="284" x2="740" y2="284" stroke="#e5e7eb" stroke-width="1"/>
  <text x="50" y="289" text-anchor="end" font-size="12" fill="#6b7280">
    120K
  </text>
  <line x1="60" y1="340" x2="740" y2="340" stroke="#e5e7eb" stroke-width="1"/>
  <text x="50" y="345" text-anchor="end" font-size="12" fill="#6b7280">
    0
  </text>
  <text x="60" y="365" text-anchor="middle" font-size="10" fill="#6b7280" transform="rotate(-45, 60, 365)">
    11-07
  </text>
  <text x="286.66666666666663" y="365" text-anchor="middle" font-size="10" fill="#6b7280" transform="rotate(-45, 286.66666666666663, 365)">
    11-08
  </text>
  <text x="513.3333333333333" y="365" text-anchor="middle" font-size="10" fill="#6b7280" transform="rotate(-45, 513.3333333333333, 365)">
    11-09
  </text>
  <text x="740" y="365" text-anchor="middle" font-size="10" fill="#6b7280" transform="rotate(-45, 740, 365)">
    11-10
  </text>
  <polyline points="60,98.87078633793311 286.66666666666663,104.86987033763117 513.3333333333333,112.81829250010782 740,85.4545454545455" fill="none" stroke="#3b82f6" stroke-width="2"/>
  <circle cx="60" cy="98.87078633793311" r="4" fill="#3b82f6"/>
  <circle cx="286.66666666666663" cy="104.86987033763117" r="4" fill="#3b82f6"/>
  <circle cx="513.3333333333333" cy="112.81829250010782" r="4" fill="#3b82f6"/>
  <circle cx="740" cy="85.4545454545455" r="4" fill="#3b82f6"/>
  <polyline points="60,98.68855277679415 286.66666666666663,100.04185241087876 513.3333333333333,120.78237809353217 740,98.671580685012" fill="none" stroke="#ef4444" stroke-width="2"/>
  <circle cx="60" cy="98.68855277679415" r="4" fill="#ef4444"/>
  <circle cx="286.66666666666663" cy="100.04185241087876" r="4" fill="#ef4444"/>
  <circle cx="513.3333333333333" cy="120.78237809353217" r="4" fill="#ef4444"/>
  <circle cx="740" cy="98.671580685012" r="4" fill="#ef4444"/>
  <polyline points="60,99.3619585032192 286.66666666666663,98.56365443860949 513.3333333333333,90.73426982897305 740,104.2145381121922" fill="none" stroke="#10b981" stroke-width="2"/>
  <circle cx="60" cy="99.3619585032192" r="4" fill="#10b981"/>
  <circle cx="286.66666666666663" cy="98.56365443860949" r="4" fill="#10b981"/>
  <circle cx="513.3333333333333" cy="90.73426982897305" r="4" fill="#10b981"/>
  <circle cx="740" cy="104.2145381121922" r="4" fill="#10b981"/>
  <polyline points="60,98.73650636868138 286.66666666666663,98.5460207324094 513.3333333333333,92.45642468663056 740,134.36637644570604" fill="none" stroke="#f59e0b" stroke-width="2"/>
  <circle cx="60" cy="98.73650636868138" r="4" fill="#f59e0b"/>
  <circle cx="286.66666666666663" cy="98.5460207324094" r="4" fill="#f59e0b"/>
  <circle cx="513.3333333333333" cy="92.45642468663056" r="4" fill="#f59e0b"/>
  <circle cx="740" cy="134.36637644570604" r="4" fill="#f59e0b"/>
  <rect x="650" y="42" width="12" height="12" fill="#3b82f6"/>
  <text x="668" y="53" font-size="12" fill="#374151">Silk - Toggle theme 1000x</text>
  <rect x="650" y="62" width="12" height="12" fill="#ef4444"/>
  <text x="668" y="73" font-size="12" fill="#374151">Tailwind CSS - Toggle theme 1000x</text>
  <rect x="650" y="82" width="12" height="12" fill="#10b981"/>
  <text x="668" y="93" font-size="12" fill="#374151">Panda CSS - Toggle theme 1000x</text>
  <rect x="650" y="102" width="12" height="12" fill="#f59e0b"/>
  <text x="668" y="113" font-size="12" fill="#374151">UnoCSS - Toggle theme 1000x</text>
</svg>