<svg width="800" height="400" xmlns="http://www.w3.org/2000/svg">
  <!-- Background -->
  <rect width="800" height="400" fill="white"/>

  <!-- Title -->
  <text x="400" y="30" text-anchor="middle" font-size="18" font-weight="bold" fill="#1f2937">
    Theme toggle (dark/light mode) - Performance Trend
  </text>

  <!-- Grid lines -->
  <line x1="60" y1="60" x2="740" y2="60" stroke="#e5e7eb" stroke-width="1"/>
  <text x="50" y="65" text-anchor="end" font-size="12" fill="#6b7280">
    569K
  </text>
  <line x1="60" y1="116" x2="740" y2="116" stroke="#e5e7eb" stroke-width="1"/>
  <text x="50" y="121" text-anchor="end" font-size="12" fill="#6b7280">
    455K
  </text>
  <line x1="60" y1="172" x2="740" y2="172" stroke="#e5e7eb" stroke-width="1"/>
  <text x="50" y="177" text-anchor="end" font-size="12" fill="#6b7280">
    341K
  </text>
  <line x1="60" y1="228" x2="740" y2="228" stroke="#e5e7eb" stroke-width="1"/>
  <text x="50" y="233" text-anchor="end" font-size="12" fill="#6b7280">
    227K
  </text>
  <line x1="60" y1="284" x2="740" y2="284" stroke="#e5e7eb" stroke-width="1"/>
  <text x="50" y="289" text-anchor="end" font-size="12" fill="#6b7280">
    114K
  </text>
  <line x1="60" y1="340" x2="740" y2="340" stroke="#e5e7eb" stroke-width="1"/>
  <text x="50" y="345" text-anchor="end" font-size="12" fill="#6b7280">
    0
  </text>
  <text x="60" y="365" text-anchor="middle" font-size="10" fill="#6b7280" transform="rotate(-45, 60, 365)">
    11-07
  </text>
  <text x="400" y="365" text-anchor="middle" font-size="10" fill="#6b7280" transform="rotate(-45, 400, 365)">
    11-08
  </text>
  <text x="740" y="365" text-anchor="middle" font-size="10" fill="#6b7280" transform="rotate(-45, 740, 365)">
    11-09
  </text>
  <polyline points="60,86.01258689565174 400,92.3315716546465 740,85.86962589994232" fill="none" stroke="#3b82f6" stroke-width="2"/>
  <circle cx="60" cy="86.01258689565174" r="4" fill="#3b82f6"/>
  <circle cx="400" cy="92.3315716546465" r="4" fill="#3b82f6"/>
  <circle cx="740" cy="85.86962589994232" r="4" fill="#3b82f6"/>
  <polyline points="60,85.82063574186353 400,87.24609998983274 740,85.45454545454547" fill="none" stroke="#ef4444" stroke-width="2"/>
  <circle cx="60" cy="85.82063574186353" r="4" fill="#ef4444"/>
  <circle cx="400" cy="87.24609998983274" r="4" fill="#ef4444"/>
  <circle cx="740" cy="85.45454545454547" r="4" fill="#ef4444"/>
  <polyline points="60,86.52995078431232 400,85.6890772080186 740,86.91925212718749" fill="none" stroke="#10b981" stroke-width="2"/>
  <circle cx="60" cy="86.52995078431232" r="4" fill="#10b981"/>
  <circle cx="400" cy="85.6890772080186" r="4" fill="#10b981"/>
  <circle cx="740" cy="86.91925212718749" r="4" fill="#10b981"/>
  <polyline points="60,85.87114645588082 400,85.6705031855964 740,86.90471335518049" fill="none" stroke="#f59e0b" stroke-width="2"/>
  <circle cx="60" cy="85.87114645588082" r="4" fill="#f59e0b"/>
  <circle cx="400" cy="85.6705031855964" r="4" fill="#f59e0b"/>
  <circle cx="740" cy="86.90471335518049" r="4" fill="#f59e0b"/>
  <rect x="650" y="42" width="12" height="12" fill="#3b82f6"/>
  <text x="668" y="53" font-size="12" fill="#374151">Silk - Toggle theme 1000x</text>
  <rect x="650" y="62" width="12" height="12" fill="#ef4444"/>
  <text x="668" y="73" font-size="12" fill="#374151">Tailwind CSS - Toggle theme 1000x</text>
  <rect x="650" y="82" width="12" height="12" fill="#10b981"/>
  <text x="668" y="93" font-size="12" fill="#374151">Panda CSS - Toggle theme 1000x</text>
  <rect x="650" y="102" width="12" height="12" fill="#f59e0b"/>
  <text x="668" y="113" font-size="12" fill="#374151">UnoCSS - Toggle theme 1000x</text>
</svg>